<svg width="146" height="146" viewBox="0 0 146 146" fill="none" xmlns="http://www.w3.org/2000/svg">
<path d="M42.0359 33.4586L56.0276 47.3894L47.3892 56.0277L33.4584 42.0361L19.5276 56.0277L10.8892 47.3894L24.8809 33.4586L10.8892 19.5277L19.5276 10.8894L33.4584 24.8811L47.3892 10.8894L56.0276 19.5277L42.0359 33.4586ZM135.111 98.6111L126.473 89.9727L112.542 103.964L98.6109 89.9727L89.9725 98.6111L103.964 112.542L89.9725 126.473L98.6109 135.111L112.542 121.119L126.473 135.111L135.111 126.473L121.119 112.542L135.111 98.6111ZM124.1 41.5494L104.512 66.9169L94.9001 59.1911L102.018 50.0661C92.9392 51.9102 84.4705 56.0079 77.3906 61.9822C70.3108 67.9565 64.8472 75.6155 61.5025 84.2544C66.7974 88.0727 70.5535 93.6575 72.0933 100.001C73.633 106.345 72.8551 113.03 69.8998 118.851C66.9445 124.672 62.0064 129.245 55.9762 131.745C49.946 134.246 43.2208 134.509 37.0137 132.488C30.8065 130.466 25.5261 126.293 22.1248 120.721C18.7236 115.149 17.4256 108.545 18.4648 102.1C19.504 95.6555 22.8121 89.7943 27.7923 85.5738C32.7726 81.3533 39.0971 79.0515 45.6251 79.0836C47.2188 79.09 48.8081 79.253 50.3701 79.5702C54.5847 69.1107 61.3143 59.8523 69.9625 52.6154C78.6107 45.3785 88.9105 40.3865 99.9492 38.0819L91.2501 31.5119L98.9759 21.9002L124.1 41.5494ZM60.8334 106.459C60.8334 103.451 59.9414 100.51 58.2703 98.0093C56.5992 95.5083 54.224 93.559 51.445 92.4079C48.6661 91.2568 45.6082 90.9556 42.6581 91.5424C39.7079 92.1293 36.9981 93.5777 34.8711 95.7046C32.7442 97.8316 31.2958 100.541 30.7089 103.492C30.1221 106.442 30.4233 109.5 31.5744 112.279C32.7255 115.058 34.6748 117.433 37.1758 119.104C39.6768 120.775 42.6171 121.667 45.6251 121.667C49.6586 121.667 53.5269 120.065 56.379 117.212C59.2311 114.36 60.8334 110.492 60.8334 106.459Z" fill="#A1E8FF"/>
</svg>
